<?xml version="1.0" encoding="UTF-8" standalone="no"?>
<!DOCTYPE svg PUBLIC "-//W3C//DTD SVG 1.1//EN"
 "http://www.w3.org/Graphics/SVG/1.1/DTD/svg11.dtd">
<!-- Generated by graphviz version 2.47.3 (20210619.1520)
 -->
<!-- Pages: 1 -->
<svg width="638pt" height="396pt"
 viewBox="0.00 0.00 638.00 396.00" xmlns="http://www.w3.org/2000/svg" xmlns:xlink="http://www.w3.org/1999/xlink">
<g id="graph0" class="graph" transform="scale(1 1) rotate(0) translate(4 392)">
<polygon fill="white" stroke="transparent" points="-4,4 -4,-392 634,-392 634,4 -4,4"/>
<!-- [root] ibm_container_cluster.testacc_cluster -->
<g id="node_0" class="node">
<title>[root] ibm_container_cluster.testacc_cluster</title>
<polygon fill="none" stroke="black" points="0,-296 0,-316 20,-316 20,-296 0,-296"/>
<image xlink:href="static/images/kubernetes.png" width="14px" height="14px" preserveAspectRatio="xMinYMin meet" x="3" y="-313"/>
<polygon fill="none" stroke="black" points="20,-296 20,-316 148,-316 148,-296 20,-296"/>
<text text-anchor="start" x="36.5" y="-304.1" font-family="courier new" font-size="8.00">ibm_container_cluster</text>
<polygon fill="none" stroke="black" points="148,-296 148,-316 198,-316 198,-296 148,-296"/>
<polygon fill="none" stroke="black" points="0,-276 0,-296 20,-296 20,-276 0,-276"/>
<image xlink:href="static/images/instance.png" width="14px" height="14px" preserveAspectRatio="xMinYMin meet" x="3" y="-293"/>
<polygon fill="none" stroke="black" points="20,-276 20,-296 148,-296 148,-276 20,-276"/>
<text text-anchor="start" x="38.5" y="-284.1" font-family="courier new" font-size="8.00">testacc_cluster &#160;&#160;&#160;&#160;</text>
<polygon fill="none" stroke="black" points="148,-276 148,-296 198,-296 198,-276 148,-276"/>
<polygon fill="none" stroke="black" points="0,-256 0,-276 20,-276 20,-256 0,-256"/>
<image xlink:href="static/images/plan.png" width="14px" height="14px" preserveAspectRatio="xMinYMin meet" x="3" y="-273"/>
<polygon fill="none" stroke="black" points="20,-256 20,-276 148,-276 148,-256 20,-256"/>
<text text-anchor="start" x="25" y="-264.1" font-family="courier new" font-size="8.00">&gt;_terraform plan &#160;&#160;&#160;&#160;&#160;&#160;&#160;&#160;&#160;</text>
<polygon fill="none" stroke="black" points="148,-256 148,-276 198,-276 198,-256 148,-256"/>
<image xlink:href="static/images/correct.png" width="32px" height="14px" preserveAspectRatio="xMinYMin meet" x="157" y="-273"/>
<polygon fill="none" stroke="black" points="0,-236 0,-256 20,-256 20,-236 0,-236"/>
<image xlink:href="static/images/policy.png" width="14px" height="14px" preserveAspectRatio="xMinYMin meet" x="3" y="-253"/>
<polygon fill="none" stroke="black" points="20,-236 20,-256 148,-256 148,-236 20,-236"/>
<text text-anchor="start" x="23" y="-244.1" font-family="courier new" font-size="8.00">&gt;_controls verify &#160;&#160;&#160;&#160;&#160;&#160;&#160;&#160;&#160;</text>
<polygon fill="none" stroke="black" points="148,-236 148,-256 198,-256 198,-236 148,-236"/>
<image xlink:href="static/images/hourglass.png" width="32px" height="14px" preserveAspectRatio="xMinYMin meet" x="157" y="-253"/>
<polygon fill="none" stroke="black" points="0,-216 0,-236 20,-236 20,-216 0,-216"/>
<image xlink:href="static/images/cost.png" width="14px" height="14px" preserveAspectRatio="xMinYMin meet" x="3" y="-233"/>
<polygon fill="none" stroke="black" points="20,-216 20,-236 148,-236 148,-216 20,-216"/>
<text text-anchor="start" x="25" y="-224.1" font-family="courier new" font-size="8.00">&gt;_estimate cost &#160;&#160;&#160;&#160;&#160;&#160;&#160;&#160;&#160;&#160;</text>
<polygon fill="none" stroke="black" points="148,-216 148,-236 198,-236 198,-216 148,-216"/>
<text text-anchor="start" x="150" y="-224.1" font-family="courier new" font-size="8.00">211.68 &#160;&#160;&#160;</text>
<polygon fill="none" stroke="black" points="0,-196 0,-216 20,-216 20,-196 0,-196"/>
<image xlink:href="static/images/time.png" width="14px" height="14px" preserveAspectRatio="xMinYMin meet" x="3" y="-213"/>
<polygon fill="none" stroke="black" points="20,-196 20,-216 148,-216 148,-196 20,-196"/>
<text text-anchor="start" x="25" y="-204.1" font-family="courier new" font-size="8.00">&gt;_estimate time &#160;&#160;&#160;&#160;&#160;&#160;&#160;&#160;&#160;&#160;</text>
<polygon fill="none" stroke="black" points="148,-196 148,-216 198,-216 198,-196 148,-196"/>
<image xlink:href="static/images/hourglass.png" width="32px" height="14px" preserveAspectRatio="xMinYMin meet" x="157" y="-213"/>
<polygon fill="none" stroke="black" points="0,-176 0,-196 20,-196 20,-176 0,-176"/>
<image xlink:href="static/images/apply.png" width="14px" height="14px" preserveAspectRatio="xMinYMin meet" x="3" y="-193"/>
<polygon fill="none" stroke="black" points="20,-176 20,-196 148,-196 148,-176 20,-176"/>
<text text-anchor="start" x="25" y="-184.1" font-family="courier new" font-size="8.00">&gt;_terraform apply &#160;&#160;&#160;&#160;&#160;&#160;&#160;&#160;</text>
<polygon fill="none" stroke="black" points="148,-176 148,-196 198,-196 198,-176 148,-176"/>
<image xlink:href="static/images/correct.png" width="32px" height="14px" preserveAspectRatio="xMinYMin meet" x="157" y="-193"/>
</g>
<!-- [root] ibm_is_ssh_key.testacc_sshkey -->
<g id="node_1" class="node">
<title>[root] ibm_is_ssh_key.testacc_sshkey</title>
<polygon fill="none" stroke="black" points="216,-296 216,-316 236,-316 236,-296 216,-296"/>
<image xlink:href="static/images/vpc.png" width="14px" height="14px" preserveAspectRatio="xMinYMin meet" x="219" y="-313"/>
<polygon fill="none" stroke="black" points="236,-296 236,-316 364,-316 364,-296 236,-296"/>
<text text-anchor="start" x="254.5" y="-304.1" font-family="courier new" font-size="8.00">ibm_is_ssh_key &#160;&#160;&#160;&#160;&#160;</text>
<polygon fill="none" stroke="black" points="364,-296 364,-316 414,-316 414,-296 364,-296"/>
<polygon fill="none" stroke="black" points="216,-276 216,-296 236,-296 236,-276 216,-276"/>
<image xlink:href="static/images/instance.png" width="14px" height="14px" preserveAspectRatio="xMinYMin meet" x="219" y="-293"/>
<polygon fill="none" stroke="black" points="236,-276 236,-296 364,-296 364,-276 236,-276"/>
<text text-anchor="start" x="254.5" y="-284.1" font-family="courier new" font-size="8.00">testacc_sshkey &#160;&#160;&#160;&#160;&#160;</text>
<polygon fill="none" stroke="black" points="364,-276 364,-296 414,-296 414,-276 364,-276"/>
<polygon fill="none" stroke="black" points="216,-256 216,-276 236,-276 236,-256 216,-256"/>
<image xlink:href="static/images/plan.png" width="14px" height="14px" preserveAspectRatio="xMinYMin meet" x="219" y="-273"/>
<polygon fill="none" stroke="black" points="236,-256 236,-276 364,-276 364,-256 236,-256"/>
<text text-anchor="start" x="241" y="-264.1" font-family="courier new" font-size="8.00">&gt;_terraform plan &#160;&#160;&#160;&#160;&#160;&#160;&#160;&#160;&#160;</text>
<polygon fill="none" stroke="black" points="364,-256 364,-276 414,-276 414,-256 364,-256"/>
<image xlink:href="static/images/correct.png" width="32px" height="14px" preserveAspectRatio="xMinYMin meet" x="373" y="-273"/>
<polygon fill="none" stroke="black" points="216,-236 216,-256 236,-256 236,-236 216,-236"/>
<image xlink:href="static/images/policy.png" width="14px" height="14px" preserveAspectRatio="xMinYMin meet" x="219" y="-253"/>
<polygon fill="none" stroke="black" points="236,-236 236,-256 364,-256 364,-236 236,-236"/>
<text text-anchor="start" x="239" y="-244.1" font-family="courier new" font-size="8.00">&gt;_controls verify &#160;&#160;&#160;&#160;&#160;&#160;&#160;&#160;&#160;</text>
<polygon fill="none" stroke="black" points="364,-236 364,-256 414,-256 414,-236 364,-236"/>
<image xlink:href="static/images/hourglass.png" width="32px" height="14px" preserveAspectRatio="xMinYMin meet" x="373" y="-253"/>
<polygon fill="none" stroke="black" points="216,-216 216,-236 236,-236 236,-216 216,-216"/>
<image xlink:href="static/images/cost.png" width="14px" height="14px" preserveAspectRatio="xMinYMin meet" x="219" y="-233"/>
<polygon fill="none" stroke="black" points="236,-216 236,-236 364,-236 364,-216 236,-216"/>
<text text-anchor="start" x="241" y="-224.1" font-family="courier new" font-size="8.00">&gt;_estimate cost &#160;&#160;&#160;&#160;&#160;&#160;&#160;&#160;&#160;&#160;</text>
<polygon fill="none" stroke="black" points="364,-216 364,-236 414,-236 414,-216 364,-216"/>
<text text-anchor="start" x="366" y="-224.1" font-family="courier new" font-size="8.00">N/A &#160;&#160;&#160;&#160;&#160;&#160;</text>
<polygon fill="none" stroke="black" points="216,-196 216,-216 236,-216 236,-196 216,-196"/>
<image xlink:href="static/images/time.png" width="14px" height="14px" preserveAspectRatio="xMinYMin meet" x="219" y="-213"/>
<polygon fill="none" stroke="black" points="236,-196 236,-216 364,-216 364,-196 236,-196"/>
<text text-anchor="start" x="241" y="-204.1" font-family="courier new" font-size="8.00">&gt;_estimate time &#160;&#160;&#160;&#160;&#160;&#160;&#160;&#160;&#160;&#160;</text>
<polygon fill="none" stroke="black" points="364,-196 364,-216 414,-216 414,-196 364,-196"/>
<image xlink:href="static/images/hourglass.png" width="32px" height="14px" preserveAspectRatio="xMinYMin meet" x="373" y="-213"/>
<polygon fill="none" stroke="black" points="216,-176 216,-196 236,-196 236,-176 216,-176"/>
<image xlink:href="static/images/apply.png" width="14px" height="14px" preserveAspectRatio="xMinYMin meet" x="219" y="-193"/>
<polygon fill="none" stroke="black" points="236,-176 236,-196 364,-196 364,-176 236,-176"/>
<text text-anchor="start" x="241" y="-184.1" font-family="courier new" font-size="8.00">&gt;_terraform apply &#160;&#160;&#160;&#160;&#160;&#160;&#160;&#160;</text>
<polygon fill="none" stroke="black" points="364,-176 364,-196 414,-196 414,-176 364,-176"/>
<image xlink:href="static/images/correct.png" width="32px" height="14px" preserveAspectRatio="xMinYMin meet" x="373" y="-193"/>
</g>
<!-- [root] ibm_is_subnet.testacc_subnet -->
<g id="node_2" class="node">
<title>[root] ibm_is_subnet.testacc_subnet</title>
<polygon fill="none" stroke="black" points="432,-296 432,-316 452,-316 452,-296 432,-296"/>
<image xlink:href="static/images/vpc.png" width="14px" height="14px" preserveAspectRatio="xMinYMin meet" x="435" y="-313"/>
<polygon fill="none" stroke="black" points="452,-296 452,-316 580,-316 580,-296 452,-296"/>
<text text-anchor="start" x="470.5" y="-304.1" font-family="courier new" font-size="8.00">ibm_is_subnet &#160;&#160;&#160;&#160;&#160;&#160;</text>
<polygon fill="none" stroke="black" points="580,-296 580,-316 630,-316 630,-296 580,-296"/>
<polygon fill="none" stroke="black" points="432,-276 432,-296 452,-296 452,-276 432,-276"/>
<image xlink:href="static/images/instance.png" width="14px" height="14px" preserveAspectRatio="xMinYMin meet" x="435" y="-293"/>
<polygon fill="none" stroke="black" points="452,-276 452,-296 580,-296 580,-276 452,-276"/>
<text text-anchor="start" x="470.5" y="-284.1" font-family="courier new" font-size="8.00">testacc_subnet &#160;&#160;&#160;&#160;&#160;</text>
<polygon fill="none" stroke="black" points="580,-276 580,-296 630,-296 630,-276 580,-276"/>
<polygon fill="none" stroke="black" points="432,-256 432,-276 452,-276 452,-256 432,-256"/>
<image xlink:href="static/images/plan.png" width="14px" height="14px" preserveAspectRatio="xMinYMin meet" x="435" y="-273"/>
<polygon fill="none" stroke="black" points="452,-256 452,-276 580,-276 580,-256 452,-256"/>
<text text-anchor="start" x="457" y="-264.1" font-family="courier new" font-size="8.00">&gt;_terraform plan &#160;&#160;&#160;&#160;&#160;&#160;&#160;&#160;&#160;</text>
<polygon fill="none" stroke="black" points="580,-256 580,-276 630,-276 630,-256 580,-256"/>
<image xlink:href="static/images/correct.png" width="32px" height="14px" preserveAspectRatio="xMinYMin meet" x="589" y="-273"/>
<polygon fill="none" stroke="black" points="432,-236 432,-256 452,-256 452,-236 432,-236"/>
<image xlink:href="static/images/policy.png" width="14px" height="14px" preserveAspectRatio="xMinYMin meet" x="435" y="-253"/>
<polygon fill="none" stroke="black" points="452,-236 452,-256 580,-256 580,-236 452,-236"/>
<text text-anchor="start" x="455" y="-244.1" font-family="courier new" font-size="8.00">&gt;_controls verify &#160;&#160;&#160;&#160;&#160;&#160;&#160;&#160;&#160;</text>
<polygon fill="none" stroke="black" points="580,-236 580,-256 630,-256 630,-236 580,-236"/>
<image xlink:href="static/images/hourglass.png" width="32px" height="14px" preserveAspectRatio="xMinYMin meet" x="589" y="-253"/>
<polygon fill="none" stroke="black" points="432,-216 432,-236 452,-236 452,-216 432,-216"/>
<image xlink:href="static/images/cost.png" width="14px" height="14px" preserveAspectRatio="xMinYMin meet" x="435" y="-233"/>
<polygon fill="none" stroke="black" points="452,-216 452,-236 580,-236 580,-216 452,-216"/>
<text text-anchor="start" x="457" y="-224.1" font-family="courier new" font-size="8.00">&gt;_estimate cost &#160;&#160;&#160;&#160;&#160;&#160;&#160;&#160;&#160;&#160;</text>
<polygon fill="none" stroke="black" points="580,-216 580,-236 630,-236 630,-216 580,-216"/>
<text text-anchor="start" x="582" y="-224.1" font-family="courier new" font-size="8.00">0 &#160;&#160;&#160;&#160;&#160;&#160;&#160;&#160;</text>
<polygon fill="none" stroke="black" points="432,-196 432,-216 452,-216 452,-196 432,-196"/>
<image xlink:href="static/images/time.png" width="14px" height="14px" preserveAspectRatio="xMinYMin meet" x="435" y="-213"/>
<polygon fill="none" stroke="black" points="452,-196 452,-216 580,-216 580,-196 452,-196"/>
<text text-anchor="start" x="457" y="-204.1" font-family="courier new" font-size="8.00">&gt;_estimate time &#160;&#160;&#160;&#160;&#160;&#160;&#160;&#160;&#160;&#160;</text>
<polygon fill="none" stroke="black" points="580,-196 580,-216 630,-216 630,-196 580,-196"/>
<image xlink:href="static/images/hourglass.png" width="32px" height="14px" preserveAspectRatio="xMinYMin meet" x="589" y="-213"/>
<polygon fill="none" stroke="black" points="432,-176 432,-196 452,-196 452,-176 432,-176"/>
<image xlink:href="static/images/apply.png" width="14px" height="14px" preserveAspectRatio="xMinYMin meet" x="435" y="-193"/>
<polygon fill="none" stroke="black" points="452,-176 452,-196 580,-196 580,-176 452,-176"/>
<text text-anchor="start" x="457" y="-184.1" font-family="courier new" font-size="8.00">&gt;_terraform apply &#160;&#160;&#160;&#160;&#160;&#160;&#160;&#160;</text>
<polygon fill="none" stroke="black" points="580,-176 580,-196 630,-196 630,-176 580,-176"/>
<image xlink:href="static/images/correct.png" width="32px" height="14px" preserveAspectRatio="xMinYMin meet" x="589" y="-193"/>
</g>
<!-- [root] ibm_is_vpc.testacc_vpc -->
<g id="node_3" class="node">
<title>[root] ibm_is_vpc.testacc_vpc</title>
<polygon fill="none" stroke="black" points="432,-120 432,-140 452,-140 452,-120 432,-120"/>
<image xlink:href="static/images/vpc.png" width="14px" height="14px" preserveAspectRatio="xMinYMin meet" x="435" y="-137"/>
<polygon fill="none" stroke="black" points="452,-120 452,-140 580,-140 580,-120 452,-120"/>
<text text-anchor="start" x="470.5" y="-128.1" font-family="courier new" font-size="8.00">ibm_is_vpc &#160;&#160;&#160;&#160;&#160;&#160;&#160;&#160;&#160;</text>
<polygon fill="none" stroke="black" points="580,-120 580,-140 630,-140 630,-120 580,-120"/>
<polygon fill="none" stroke="black" points="432,-100 432,-120 452,-120 452,-100 432,-100"/>
<image xlink:href="static/images/instance.png" width="14px" height="14px" preserveAspectRatio="xMinYMin meet" x="435" y="-117"/>
<polygon fill="none" stroke="black" points="452,-100 452,-120 580,-120 580,-100 452,-100"/>
<text text-anchor="start" x="470.5" y="-108.1" font-family="courier new" font-size="8.00">testacc_vpc &#160;&#160;&#160;&#160;&#160;&#160;&#160;&#160;</text>
<polygon fill="none" stroke="black" points="580,-100 580,-120 630,-120 630,-100 580,-100"/>
<polygon fill="none" stroke="black" points="432,-80 432,-100 452,-100 452,-80 432,-80"/>
<image xlink:href="static/images/plan.png" width="14px" height="14px" preserveAspectRatio="xMinYMin meet" x="435" y="-97"/>
<polygon fill="none" stroke="black" points="452,-80 452,-100 580,-100 580,-80 452,-80"/>
<text text-anchor="start" x="457" y="-88.1" font-family="courier new" font-size="8.00">&gt;_terraform plan &#160;&#160;&#160;&#160;&#160;&#160;&#160;&#160;&#160;</text>
<polygon fill="none" stroke="black" points="580,-80 580,-100 630,-100 630,-80 580,-80"/>
<image xlink:href="static/images/correct.png" width="32px" height="14px" preserveAspectRatio="xMinYMin meet" x="589" y="-97"/>
<polygon fill="none" stroke="black" points="432,-60 432,-80 452,-80 452,-60 432,-60"/>
<image xlink:href="static/images/policy.png" width="14px" height="14px" preserveAspectRatio="xMinYMin meet" x="435" y="-77"/>
<polygon fill="none" stroke="black" points="452,-60 452,-80 580,-80 580,-60 452,-60"/>
<text text-anchor="start" x="455" y="-68.1" font-family="courier new" font-size="8.00">&gt;_controls verify &#160;&#160;&#160;&#160;&#160;&#160;&#160;&#160;&#160;</text>
<polygon fill="none" stroke="black" points="580,-60 580,-80 630,-80 630,-60 580,-60"/>
<image xlink:href="static/images/hourglass.png" width="32px" height="14px" preserveAspectRatio="xMinYMin meet" x="589" y="-77"/>
<polygon fill="none" stroke="black" points="432,-40 432,-60 452,-60 452,-40 432,-40"/>
<image xlink:href="static/images/cost.png" width="14px" height="14px" preserveAspectRatio="xMinYMin meet" x="435" y="-57"/>
<polygon fill="none" stroke="black" points="452,-40 452,-60 580,-60 580,-40 452,-40"/>
<text text-anchor="start" x="457" y="-48.1" font-family="courier new" font-size="8.00">&gt;_estimate cost &#160;&#160;&#160;&#160;&#160;&#160;&#160;&#160;&#160;&#160;</text>
<polygon fill="none" stroke="black" points="580,-40 580,-60 630,-60 630,-40 580,-40"/>
<text text-anchor="start" x="582" y="-48.1" font-family="courier new" font-size="8.00">0 &#160;&#160;&#160;&#160;&#160;&#160;&#160;&#160;</text>
<polygon fill="none" stroke="black" points="432,-20 432,-40 452,-40 452,-20 432,-20"/>
<image xlink:href="static/images/time.png" width="14px" height="14px" preserveAspectRatio="xMinYMin meet" x="435" y="-37"/>
<polygon fill="none" stroke="black" points="452,-20 452,-40 580,-40 580,-20 452,-20"/>
<text text-anchor="start" x="457" y="-28.1" font-family="courier new" font-size="8.00">&gt;_estimate time &#160;&#160;&#160;&#160;&#160;&#160;&#160;&#160;&#160;&#160;</text>
<polygon fill="none" stroke="black" points="580,-20 580,-40 630,-40 630,-20 580,-20"/>
<image xlink:href="static/images/hourglass.png" width="32px" height="14px" preserveAspectRatio="xMinYMin meet" x="589" y="-37"/>
<polygon fill="none" stroke="black" points="432,0 432,-20 452,-20 452,0 432,0"/>
<image xlink:href="static/images/apply.png" width="14px" height="14px" preserveAspectRatio="xMinYMin meet" x="435" y="-17"/>
<polygon fill="none" stroke="black" points="452,0 452,-20 580,-20 580,0 452,0"/>
<text text-anchor="start" x="457" y="-8.1" font-family="courier new" font-size="8.00">&gt;_terraform apply &#160;&#160;&#160;&#160;&#160;&#160;&#160;&#160;</text>
<polygon fill="none" stroke="black" points="580,0 580,-20 630,-20 630,0 580,0"/>
<image xlink:href="static/images/correct.png" width="32px" height="14px" preserveAspectRatio="xMinYMin meet" x="589" y="-17"/>
</g>
<!-- [root] ibm_is_subnet.testacc_subnet&#45;&gt;[root] ibm_is_vpc.testacc_vpc -->
<g id="edge_0" class="edge">
<title>[root] ibm_is_subnet.testacc_subnet&#45;&gt;[root] ibm_is_vpc.testacc_vpc</title>
<path fill="none" stroke="black" d="M531,-175.98C531,-167.52 531,-158.83 531,-150.24"/>
<polygon fill="black" stroke="black" points="534.5,-150.22 531,-140.22 527.5,-150.22 534.5,-150.22"/>
</g>
<!-- [root] root -->
<g id="node_4" class="node">
<title>[root] root</title>
<polygon fill="none" stroke="black" points="287,-370 287,-385 343,-385 343,-370 287,-370"/>
<text text-anchor="start" x="290" y="-375.6" font-family="courier new" font-size="8.00">[root] root</text>
<polygon fill="none" stroke="black" points="287,-355 287,-370 343,-370 343,-355 287,-355"/>
<text text-anchor="start" x="292" y="-360.6" font-family="courier new" font-size="8.00">211.68 USD</text>
</g>
<!-- [root] root&#45;&gt;[root] ibm_container_cluster.testacc_cluster -->
<g id="edge_1" class="edge">
<title>[root] root&#45;&gt;[root] ibm_container_cluster.testacc_cluster</title>
<path fill="none" stroke="black" d="M286.58,-356.12C264.54,-345.88 233.4,-330.85 207,-316 206.91,-315.95 206.82,-315.9 206.73,-315.85"/>
<polygon fill="black" stroke="black" points="208.62,-312.89 198.2,-310.97 205.14,-318.97 208.62,-312.89"/>
</g>
<!-- [root] root&#45;&gt;[root] ibm_is_ssh_key.testacc_sshkey -->
<g id="edge_2" class="edge">
<title>[root] root&#45;&gt;[root] ibm_is_ssh_key.testacc_sshkey</title>
<path fill="none" stroke="black" d="M315,-351.78C315,-344.61 315,-335.74 315,-326.22"/>
<polygon fill="black" stroke="black" points="318.5,-326.11 315,-316.11 311.5,-326.11 318.5,-326.11"/>
</g>
<!-- [root] root&#45;&gt;[root] ibm_is_subnet.testacc_subnet -->
<g id="edge_3" class="edge">
<title>[root] root&#45;&gt;[root] ibm_is_subnet.testacc_subnet</title>
<path fill="none" stroke="black" d="M343.42,-356.12C365.46,-345.88 396.6,-330.85 423,-316 423.09,-315.95 423.18,-315.9 423.27,-315.85"/>
<polygon fill="black" stroke="black" points="424.86,-318.97 431.8,-310.97 421.38,-312.89 424.86,-318.97"/>
</g>
</g>
</svg>
